<svg version="1.2" width="25.33mm" height="22.18mm" viewBox="4035 3424 2533 2218" preserveAspectRatio="xMidYMid" fill-rule="evenodd" stroke-width="28.222" stroke-linejoin="round" xmlns="http://www.w3.org/2000/svg" xmlns:ooo="http://xml.openoffice.org/svg/export" xmlns:xlink="http://www.w3.org/1999/xlink" xmlns:presentation="http://sun.com/xmlns/staroffice/presentation" xmlns:smil="http://www.w3.org/2001/SMIL20/" xmlns:anim="urn:oasis:names:tc:opendocument:xmlns:animation:1.0" xmlns:svg="urn:oasis:names:tc:opendocument:xmlns:svg-compatible:1.0" xml:space="preserve">
 <defs class="EmbeddedBulletChars">
  <g id="bullet-char-template-57356" transform="scale(0.00048828125,-0.00048828125)">
   <path d="M 580,1141 L 1163,571 580,0 -4,571 580,1141 Z"/>
  </g>
  <g id="bullet-char-template-57354" transform="scale(0.00048828125,-0.00048828125)">
   <path d="M 8,1128 L 1137,1128 1137,0 8,0 8,1128 Z"/>
  </g>
  <g id="bullet-char-template-10146" transform="scale(0.00048828125,-0.00048828125)">
   <path d="M 174,0 L 602,739 174,1481 1456,739 174,0 Z M 1358,739 L 309,1346 659,739 1358,739 Z"/>
  </g>
  <g id="bullet-char-template-10132" transform="scale(0.00048828125,-0.00048828125)">
   <path d="M 2015,739 L 1276,0 717,0 1260,543 174,543 174,936 1260,936 717,1481 1274,1481 2015,739 Z"/>
  </g>
  <g id="bullet-char-template-10007" transform="scale(0.00048828125,-0.00048828125)">
   <path d="M 0,-2 C -7,14 -16,27 -25,37 L 356,567 C 262,823 215,952 215,954 215,979 228,992 255,992 264,992 276,990 289,987 310,991 331,999 354,1012 L 381,999 492,748 772,1049 836,1024 860,1049 C 881,1039 901,1025 922,1006 886,937 835,863 770,784 769,783 710,716 594,584 L 774,223 C 774,196 753,168 711,139 L 727,119 C 717,90 699,76 672,76 641,76 570,178 457,381 L 164,-76 C 142,-110 111,-127 72,-127 30,-127 9,-110 8,-76 1,-67 -2,-52 -2,-32 -2,-23 -1,-13 0,-2 Z"/>
  </g>
  <g id="bullet-char-template-10004" transform="scale(0.00048828125,-0.00048828125)">
   <path d="M 285,-33 C 182,-33 111,30 74,156 52,228 41,333 41,471 41,549 55,616 82,672 116,743 169,778 240,778 293,778 328,747 346,684 L 369,508 C 377,444 397,411 428,410 L 1163,1116 C 1174,1127 1196,1133 1229,1133 1271,1133 1292,1118 1292,1087 L 1292,965 C 1292,929 1282,901 1262,881 L 442,47 C 390,-6 338,-33 285,-33 Z"/>
  </g>
  <g id="bullet-char-template-9679" transform="scale(0.00048828125,-0.00048828125)">
   <path d="M 813,0 C 632,0 489,54 383,161 276,268 223,411 223,592 223,773 276,916 383,1023 489,1130 632,1184 813,1184 992,1184 1136,1130 1245,1023 1353,916 1407,772 1407,592 1407,412 1353,268 1245,161 1136,54 992,0 813,0 Z"/>
  </g>
  <g id="bullet-char-template-8226" transform="scale(0.00048828125,-0.00048828125)">
   <path d="M 346,457 C 273,457 209,483 155,535 101,586 74,649 74,723 74,796 101,859 155,911 209,963 273,989 346,989 419,989 480,963 531,910 582,859 608,796 608,723 608,648 583,586 532,535 482,483 420,457 346,457 Z"/>
  </g>
  <g id="bullet-char-template-8211" transform="scale(0.00048828125,-0.00048828125)">
   <path d="M -4,459 L 1135,459 1135,606 -4,606 -4,459 Z"/>
  </g>
  <g id="bullet-char-template-61548" transform="scale(0.00048828125,-0.00048828125)">
   <path d="M 173,740 C 173,903 231,1043 346,1159 462,1274 601,1332 765,1332 928,1332 1067,1274 1183,1159 1299,1043 1357,903 1357,740 1357,577 1299,437 1183,322 1067,206 928,148 765,148 601,148 462,206 346,322 231,437 173,577 173,740 Z"/>
  </g>
 </defs>
 <g class="Page">
  <g class="com.sun.star.drawing.CustomShape">
   <g id="id3">
    <rect class="BoundingBox" stroke="none" fill="none" x="4035" y="3424" width="2533" height="2218"/>
    <path fill="rgb(13,148,136)" stroke="none" d="M 4535,3424 L 4536,3424 C 4448,3424 4362,3447 4286,3491 4210,3535 4147,3598 4103,3674 4059,3750 4036,3836 4036,3924 L 4036,5141 4036,5141 C 4036,5229 4059,5315 4103,5391 4147,5467 4210,5530 4286,5574 4362,5618 4448,5641 4536,5641 L 6067,5641 6067,5641 C 6155,5641 6241,5618 6317,5574 6393,5530 6456,5467 6500,5391 6544,5315 6567,5229 6567,5141 L 6567,3923 6567,3924 6567,3924 C 6567,3836 6544,3750 6500,3674 6456,3598 6393,3535 6317,3491 6241,3447 6155,3424 6067,3424 L 4535,3424 Z"/>
   </g>
  </g>
  <g class="Group">
   <g class="com.sun.star.drawing.PolyPolygonShape">
    <g id="id4">
     <rect class="BoundingBox" stroke="none" fill="none" x="4498" y="3812" width="1608" height="1442"/>
     <path fill="rgb(255,255,255)" stroke="none" d="M 6021,4457 L 6021,5092 6020,5108 6018,5124 6016,5132 6014,5139 6012,5146 6009,5154 6006,5161 6003,5167 5995,5181 5985,5193 5974,5205 5962,5216 5950,5226 5936,5234 5930,5237 5923,5240 5915,5243 5908,5245 5901,5247 5893,5249 5877,5251 5861,5252 4742,5252 4726,5251 4710,5249 4702,5247 4695,5245 4688,5243 4680,5240 4673,5237 4667,5234 4653,5226 4641,5216 4629,5205 4618,5193 4608,5181 4600,5167 4597,5161 4594,5154 4591,5146 4589,5139 4587,5132 4585,5124 4583,5108 4582,5092 4582,4457 4571,4446 4560,4434 4550,4422 4541,4409 4533,4395 4525,4380 4518,4365 4511,4349 4505,4332 4501,4315 4499,4297 4498,4280 4499,4261 4501,4243 4505,4224 4510,4205 4594,3933 4598,3920 4604,3908 4610,3896 4616,3885 4624,3875 4632,3865 4641,3856 4651,3847 4661,3839 4672,3832 4683,3826 4695,3821 4707,3818 4720,3815 4732,3813 4746,3813 5857,3813 5870,3813 5883,3815 5896,3817 5908,3821 5919,3826 5930,3831 5941,3838 5951,3846 5961,3854 5970,3864 5978,3874 5986,3884 5993,3895 5999,3907 6004,3920 6009,3933 6093,4205 6098,4224 6102,4243 6104,4261 6105,4279 6104,4297 6102,4314 6098,4330 6092,4347 6085,4362 6078,4378 6070,4392 6062,4406 6053,4419 6043,4432 6032,4445 6021,4457 Z M 5477,4373 L 5490,4372 5497,4371 5503,4370 5509,4369 5514,4367 5520,4366 5525,4363 5530,4361 5535,4358 5539,4355 5544,4352 5548,4348 5552,4344 5556,4340 5559,4336 5566,4326 5571,4316 5574,4312 5576,4307 5577,4301 5579,4296 5580,4291 5581,4286 5582,4275 5582,4264 5581,4253 5537,3973 5381,3973 5381,4269 5382,4279 5383,4289 5385,4298 5388,4308 5392,4317 5397,4325 5403,4334 5409,4342 5417,4349 5424,4355 5428,4358 5432,4361 5436,4363 5440,4365 5445,4367 5449,4368 5454,4370 5458,4371 5463,4372 5468,4372 5477,4373 Z M 5118,4373 L 5129,4372 5140,4371 5145,4370 5150,4368 5155,4367 5160,4365 5164,4363 5169,4361 5173,4358 5177,4355 5181,4352 5185,4349 5189,4345 5193,4342 5199,4334 5205,4325 5210,4317 5214,4308 5217,4298 5220,4289 5221,4279 5222,4269 5222,3973 5066,3973 5022,4253 5020,4264 5020,4276 5020,4281 5021,4287 5022,4292 5023,4298 5025,4303 5026,4308 5028,4313 5031,4318 5033,4323 5036,4327 5043,4337 5046,4341 5050,4345 5054,4349 5058,4352 5062,4356 5067,4359 5071,4361 5076,4364 5080,4366 5085,4368 5090,4369 5095,4370 5101,4371 5106,4372 5112,4372 5118,4373 Z M 4762,4373 L 4771,4372 4779,4371 4787,4369 4796,4366 4803,4362 4811,4358 4818,4353 4825,4347 4831,4340 4837,4333 4842,4325 4846,4317 4850,4309 4853,4300 4856,4291 4858,4281 4902,3973 4746,3973 4666,4241 4664,4246 4663,4251 4663,4256 4662,4261 4662,4266 4662,4272 4662,4277 4663,4282 4664,4287 4665,4293 4668,4304 4673,4315 4679,4327 4682,4332 4686,4337 4689,4342 4693,4347 4698,4351 4702,4355 4707,4358 4712,4361 4717,4364 4723,4366 4729,4368 4735,4370 4741,4371 4748,4372 4755,4372 4762,4373 Z M 5841,4373 L 5848,4372 5855,4372 5862,4371 5868,4370 5875,4368 5880,4366 5886,4364 5891,4361 5897,4358 5901,4355 5906,4351 5910,4347 5914,4342 5918,4337 5922,4332 5925,4327 5931,4315 5935,4304 5939,4293 5940,4287 5941,4282 5942,4277 5942,4272 5942,4266 5941,4261 5941,4256 5940,4251 5939,4246 5937,4241 5853,3973 5701,3973 5745,4281 5747,4291 5750,4300 5753,4309 5757,4317 5761,4325 5766,4333 5772,4340 5778,4347 5785,4353 5792,4358 5800,4362 5807,4366 5816,4369 5824,4371 5832,4372 5841,4373 Z M 4742,5092 L 5861,5092 5861,4529 5857,4530 5855,4531 5853,4532 5851,4532 5850,4532 5849,4532 5849,4532 5848,4533 5841,4533 5828,4532 5815,4531 5802,4530 5790,4528 5779,4525 5767,4522 5757,4519 5746,4515 5736,4510 5726,4504 5716,4498 5706,4491 5696,4484 5686,4475 5675,4466 5665,4457 5656,4465 5647,4474 5637,4481 5627,4489 5617,4495 5606,4502 5595,4507 5583,4513 5572,4517 5560,4521 5548,4525 5536,4527 5524,4530 5511,4531 5498,4532 5485,4533 5472,4532 5459,4531 5446,4530 5433,4527 5421,4525 5408,4521 5396,4517 5384,4513 5373,4507 5362,4502 5351,4495 5340,4489 5330,4481 5320,4474 5311,4465 5301,4457 5293,4465 5284,4474 5274,4481 5265,4489 5255,4495 5244,4502 5234,4507 5223,4513 5211,4517 5200,4521 5188,4525 5176,4527 5164,4530 5151,4531 5139,4532 5126,4533 5111,4532 5097,4531 5083,4530 5070,4527 5057,4525 5045,4521 5032,4517 5021,4513 5009,4507 4998,4502 4987,4495 4977,4489 4966,4481 4956,4474 4947,4465 4938,4457 4927,4467 4917,4476 4906,4485 4896,4492 4885,4499 4875,4506 4865,4511 4855,4516 4844,4519 4834,4523 4823,4526 4811,4528 4799,4530 4787,4531 4775,4532 4762,4533 4753,4533 4752,4532 4750,4532 4749,4532 4748,4532 4746,4531 4745,4530 4743,4530 4742,4529 4742,5092 Z"/>
    </g>
   </g>
  </g>
 </g>
</svg>